<?xml version="1.0" encoding="UTF-8" standalone="no"?>
<!-- Created with Inkscape (http://www.inkscape.org/) -->

<svg
   width="145mm"
   height="145mm"
   viewBox="0 0 145 145"
   version="1.1"
   id="svg5"
   inkscape:version="1.1.2 (0a00cf5339, 2022-02-04)"
   sodipodi:docname="buildcache-icon.svg"
   inkscape:export-filename="/tmp/buildcache-icon.png"
   inkscape:export-xdpi="44.84"
   inkscape:export-ydpi="44.84"
   xmlns:inkscape="http://www.inkscape.org/namespaces/inkscape"
   xmlns:sodipodi="http://sodipodi.sourceforge.net/DTD/sodipodi-0.dtd"
   xmlns="http://www.w3.org/2000/svg"
   xmlns:svg="http://www.w3.org/2000/svg">
  <sodipodi:namedview
     id="namedview7"
     pagecolor="#ffffff"
     bordercolor="#666666"
     borderopacity="1.0"
     inkscape:pageshadow="2"
     inkscape:pageopacity="0.0"
     inkscape:pagecheckerboard="0"
     inkscape:document-units="mm"
     showgrid="false"
     inkscape:zoom="0.70710678"
     inkscape:cx="423.55696"
     inkscape:cy="349.31075"
     inkscape:window-width="1668"
     inkscape:window-height="829"
     inkscape:window-x="157"
     inkscape:window-y="149"
     inkscape:window-maximized="0"
     inkscape:current-layer="layer1" />
  <defs
     id="defs2" />
  <g
     inkscape:label="Lager 1"
     inkscape:groupmode="layer"
     id="layer1">
    <path
       style="fill:#c0ead7;fill-opacity:1;fill-rule:evenodd;stroke:#000000;stroke-width:0.264583px;stroke-linecap:butt;stroke-linejoin:miter;stroke-opacity:1"
       d="M 26.57842,28.904214 C 27.355311,7.3153323 69.190114,5.3711473 86.562891,5.3711473 c 17.372779,0 49.410649,8.2377947 50.052559,18.6585667 0.64191,10.420771 0.22997,69.976117 0.78649,89.336506 0.37418,13.01709 -34.37742,20.51067 -53.24149,20.58017 -23.431086,0.0863 -56.014438,-6.84133 -58.162045,-19.42606 -2.52718,-14.808994 0.580015,-85.616116 0.580015,-85.616116 z"
       id="path1056"
       sodipodi:nodetypes="csssssc" />
    <path
       style="fill:#000000;stroke-width:0.264583"
       d="m 73.354828,137.46744 c -20.02808,-1.30434 -36.634875,-6.72633 -44.467399,-14.51825 -2.485489,-2.4726 -4.013687,-4.80301 -4.949467,-7.54764 l -0.721677,-2.11667 -0.07374,-42.333273 C 23.060525,23.866294 22.975912,26.288434 24.835096,22.499817 29.88768,12.203743 46.619503,4.988009 70.576698,2.7733602 c 4.821,-0.4456597 18.756856,-0.4438097 23.547913,0.003 19.666869,1.8346491 34.069709,6.7864131 41.687719,14.3324598 2.4828,2.459337 4.0133,4.790367 4.95099,7.540614 l 0.72168,2.11667 v 43.259346 43.25931 l -0.8096,2.26065 c -1.03495,2.88986 -2.36261,4.91042 -4.86479,7.40366 -7.97799,7.94952 -24.24764,13.19124 -45.121066,14.53701 -4.790877,0.30888 -12.430816,0.30061 -17.334716,-0.0188 z m 17.594786,-8.44864 c 19.203886,-1.28319 34.991936,-6.59062 40.195036,-13.51227 1.92227,-2.55719 2.00598,-3.08356 2.00598,-12.61408 v -8.311987 l -0.99219,0.827794 c -3.42963,2.861365 -9.02765,5.842263 -14.16622,7.543403 -20.630845,6.82986 -50.759872,6.83509 -71.22802,0.0124 -5.271735,-1.75725 -10.777241,-4.682308 -14.221353,-7.555763 L 31.55066,94.580503 v 8.311987 c 0,9.52021 0.08517,10.05885 1.991657,12.59503 4.876897,6.48771 19.327991,11.68442 36.902091,13.27024 6.12793,0.55297 14.534939,0.66001 20.505206,0.26108 z m 27.696456,-12.8566 c -2.83763,-1.44676 -3.19219,-5.23455 -0.67006,-7.15828 2.5281,-1.92828 6.27786,-0.27764 6.63854,2.92228 0.35567,3.15554 -3.17409,5.66072 -5.96848,4.236 z M 95.804791,103.23605 c 11.441479,-1.26059 20.152889,-3.511367 27.159379,-7.017226 5.52416,-2.764135 8.41898,-5.349526 9.63807,-8.607846 0.51291,-1.370867 0.54839,-2.014437 0.54839,-9.948084 V 69.18049 l -0.99219,0.8278 c -4.75847,3.970057 -12.073,7.321494 -20.45763,9.373474 C 91.312454,84.371441 64.974528,83.634191 46.7642,77.564074 41.492465,75.806827 35.986959,72.881757 32.542847,70.00829 l -0.992187,-0.8278 v 8.482404 c 0,7.978027 0.03315,8.570987 0.557449,9.972314 1.203249,3.21597 4.350199,5.991841 9.893592,8.726953 7.935067,3.915179 19.258577,6.476789 32.543747,7.362039 3.55844,0.23711 17.603763,-0.0854 21.259343,-0.48815 z M 118.64607,90.762248 c -0.48318,-0.24634 -1.19756,-0.86619 -1.5875,-1.37743 -0.92824,-1.21698 -1.01003,-3.571397 -0.16347,-4.705277 2.42437,-3.247177 7.27612,-2.08651 7.71945,1.84671 0.35567,3.155537 -3.17409,5.660714 -5.96848,4.235997 z M 95.804791,77.835484 c 11.433039,-1.25779 20.152089,-3.510347 27.159379,-7.016624 5.52416,-2.76415 8.41898,-5.349537 9.63807,-8.607867 0.50984,-1.36268 0.54839,-2.021187 0.54839,-9.369764 v -7.904077 l -1.78594,1.20554 c -2.88403,1.94675 -8.31064,4.445977 -13.01554,5.994287 -18.396577,6.054037 -43.969112,6.831567 -64.970372,1.97539 -7.349071,-1.69935 -15.641065,-4.996317 -20.042181,-7.968947 l -1.785937,-1.20627 v 7.904077 c 0,7.389927 0.03626,8.000994 0.557449,9.393994 1.203249,3.21597 4.350199,5.991847 9.893592,8.726984 7.998807,3.94665 19.474477,6.523677 32.808327,7.367587 3.60972,0.22846 17.369773,-0.0955 20.994763,-0.49431 z M 118.64607,65.362273 c -0.48318,-0.24635 -1.19756,-0.8662 -1.5875,-1.37744 -0.92824,-1.21698 -1.01003,-3.5714 -0.16347,-4.705277 2.42437,-3.24718 7.27612,-2.08651 7.71945,1.846707 0.35567,3.15554 -3.17409,5.660717 -5.96848,4.23601 z M 96.582461,48.087312 c 5.790999,-0.68191 8.520149,-1.15175 13.152539,-2.26432 14.48195,-3.478137 23.41563,-9.587924 23.41563,-16.014061 0,-7.622604 -12.61127,-14.702521 -31.30324,-17.573538 -7.318929,-1.12416 -10.443136,-1.33867 -19.496733,-1.33867 -10.892799,0 -17.543049,0.6552 -25.929169,2.554617 -17.665735,4.0012 -27.026718,11.260324 -24.383419,18.908511 2.847951,8.240334 20.349799,14.925331 42.771959,16.337141 4.35008,0.27391 17.363313,-0.0905 21.772433,-0.60968 z"
       id="path918" />
    <g
       id="g1344"
       transform="translate(-14.287499,-118.00423)">
      <path
         style="fill:#fbfafe;fill-opacity:1;stroke-width:3.40157;stroke-linecap:round;stroke-linejoin:round"
         id="path1188"
         sodipodi:type="arc"
         sodipodi:cx="56.341228"
         sodipodi:cy="222.53232"
         sodipodi:rx="37.121937"
         sodipodi:ry="37.701904"
         sodipodi:start="0"
         sodipodi:end="6.2493341"
         sodipodi:arc-type="arc"
         d="M 93.463165,222.53232 A 37.121937,37.701904 0 0 1 56.65538,260.23287 37.121937,37.701904 0 0 1 19.224609,223.17042 37.121937,37.701904 0 0 1 55.398863,184.84256 37.121937,37.701904 0 0 1 93.441898,221.25631"
         sodipodi:open="true" />
      <path
         style="fill:#000000;stroke-width:0.0794861"
         d="m 53.830203,260.80475 c -0.153011,-0.0172 -0.725311,-0.0695 -1.271778,-0.11632 -4.316801,-0.36961 -8.956885,-1.68765 -13.154953,-3.73672 -2.841338,-1.38685 -5.357329,-3.03944 -7.872724,-5.17108 -7.92852,-6.71892 -12.761538,-16.25051 -13.476867,-26.57882 -0.112453,-1.62366 -0.04797,-5.34678 0.117698,-6.79607 1.002452,-8.76938 4.797599,-16.70404 10.949242,-22.892 2.421626,-2.43592 5.509014,-4.79036 8.414727,-6.41707 4.57392,-2.56062 9.708246,-4.17622 15.022877,-4.72721 1.334951,-0.1384 6.151977,-0.13735 7.471695,0.002 9.027113,0.95061 17.073604,4.77241 23.396202,11.11235 3.678652,3.68874 6.496815,7.94786 8.435124,12.74808 1.321559,3.27284 2.221124,6.9282 2.601629,10.57165 0.139136,1.33228 0.138889,6.15643 -3.98e-4,7.43196 -0.617334,5.65398 -2.17782,10.57475 -4.832248,15.2378 -2.910645,5.11318 -7.164365,9.69315 -11.994133,12.91409 -5.195419,3.46479 -10.824159,5.51706 -17.196528,6.26996 -1.0216,0.1207 -5.882785,0.22938 -6.609565,0.14777 z m 4.173021,-2.57848 c 4.059082,-0.2025 7.671767,-0.97217 11.366515,-2.42162 3.466744,-1.36 6.20027,-2.95094 9.339619,-5.43574 1.504556,-1.19086 4.188006,-3.87514 5.413121,-5.4148 2.835408,-3.56339 4.711866,-7.00292 6.114343,-11.20755 0.47582,-1.4265 1.086065,-3.81666 1.23794,-4.84865 0.02252,-0.15301 0.09192,-0.58223 0.154233,-0.95383 0.351162,-2.09423 0.487133,-6.17458 0.28209,-8.46527 -0.213983,-2.39057 -0.79262,-5.34313 -1.487654,-7.59093 -1.234215,-3.99155 -3.395993,-8.09899 -5.978986,-11.36023 -6.205151,-7.83453 -14.900006,-12.598 -24.765768,-13.56791 -1.666683,-0.16385 -5.044212,-0.16231 -6.768809,0.003 -8.111814,0.77795 -15.577003,4.20897 -21.351846,9.81338 -3.184584,3.0906 -5.486143,6.23199 -7.373671,10.06431 -1.908089,3.87407 -3.102603,8.19187 -3.50736,12.67804 -0.137528,1.5243 -0.115882,4.84418 0.04208,6.45428 0.741736,7.56038 3.789807,14.57325 8.785325,20.21289 1.655639,1.86911 4.148221,4.13128 5.91762,5.37058 1.003236,0.70268 1.333479,0.92316 2.073788,1.38452 5.113187,3.18658 11.170816,5.05473 17.129259,5.28261 0.852488,0.0326 1.603632,0.0644 1.669208,0.0707 0.06558,0.006 0.834605,-0.0242 1.708952,-0.0679 z m -15.97671,-12.46504 c -0.176393,-0.0425 -0.232946,-0.0981 -0.21728,-0.21371 0.162165,-1.19635 -0.31963,-2.29849 -1.485601,-3.39841 -1.110364,-1.04746 -2.528044,-1.55893 -3.359507,-1.21203 -0.322323,0.13447 -0.39019,-1.18763 -0.08957,-1.74497 0.133697,-0.24787 1.125318,-1.31725 3.721211,-4.01302 0.568325,-0.59019 1.408891,-1.46641 1.867923,-1.94715 0.459033,-0.48075 1.211972,-1.26806 1.6732,-1.74958 0.461228,-0.48152 1.230256,-1.28684 1.708952,-1.78959 0.478695,-0.50275 0.889477,-0.93197 0.912847,-0.95383 0.02337,-0.0219 0.45009,-0.46897 0.948266,-0.99358 0.498177,-0.52461 1.352727,-1.40988 1.899,-1.96728 0.906424,-0.92488 1.018052,-1.0134 1.277344,-1.01292 0.156267,3.1e-4 0.377794,0.0629 0.492281,0.1391 0.223411,0.14873 2.862513,2.66112 4.779595,4.55011 1.122387,1.10595 1.172371,1.16876 1.171263,1.47181 -0.0013,0.3484 0.354648,-0.0486 -4.523102,5.04554 -0.899754,0.93968 -2.046214,2.13793 -2.54769,2.66279 -0.501477,0.52486 -0.931605,0.97217 -0.95584,0.99403 -0.02424,0.0219 -0.810222,0.84454 -1.746636,1.82818 -1.594703,1.67513 -2.787891,2.91728 -3.546117,3.69163 -0.178509,0.18231 -0.458157,0.39486 -0.62144,0.47235 -0.333733,0.15836 -0.999475,0.2272 -1.359096,0.14053 z m 3.623619,-4.64233 c 0.760893,-0.79784 1.795954,-1.87984 2.300133,-2.40445 3.104979,-3.23079 6.119495,-6.38665 6.500169,-6.80496 0.18348,-0.20161 0.333601,-0.40728 0.333601,-0.45704 0,-0.22336 -0.266104,-0.0396 -0.876265,0.60503 -1.073688,1.13439 -4.010068,4.20239 -4.963965,5.18647 -0.487328,0.50275 -1.614933,1.68312 -2.505786,2.62305 -0.890854,0.93992 -1.791831,1.88713 -2.002172,2.10492 -0.382906,0.39645 -0.47574,0.5976 -0.275798,0.5976 0.05865,0 0.72919,-0.65278 1.490083,-1.45062 z m -1.496926,-0.59614 c 0.928988,-0.95898 2.863836,-2.97757 6.457808,-6.7373 0.874347,-0.91468 1.929525,-2.01542 2.34484,-2.4461 0.415315,-0.43068 0.766684,-0.83427 0.780818,-0.89688 0.03813,-0.16886 -0.275525,-0.14146 -0.399025,0.0349 -0.05728,0.0818 -0.873044,0.94885 -1.812817,1.92683 -0.939772,0.97798 -2.01621,2.10039 -2.392084,2.49424 -0.375874,0.39384 -0.805099,0.8417 -0.953833,0.99523 -0.148735,0.15353 -0.967918,1.01029 -1.820407,1.9039 -0.852488,0.89361 -1.96132,2.04977 -2.464069,2.56925 -0.50275,0.51948 -0.925656,0.99511 -0.93979,1.05696 -0.06918,0.30273 0.304893,0.0215 1.198559,-0.90099 z m 0.384972,-2.54356 c 1.322824,-1.38803 2.80141,-2.93502 3.285747,-3.43777 4.021003,-4.17387 4.813985,-5.02325 4.813985,-5.15636 0,-0.2523 -0.339775,0.0391 -1.633046,1.40064 -1.419122,1.49401 -2.41788,2.53743 -4.204863,4.39291 -1.211551,1.25799 -3.834804,4.00032 -4.435672,4.63702 -0.455769,0.48295 -0.558076,0.68724 -0.344166,0.68724 0.06208,0 1.195191,-1.13565 2.518015,-2.52368 z m -2.316241,0.25833 c 2.326992,-2.41664 2.999931,-3.11776 3.700634,-3.8556 1.196737,-1.26017 4.085117,-4.27976 4.887158,-5.10917 0.415315,-0.42949 0.767242,-0.83551 0.782061,-0.90227 0.06979,-0.31442 -0.353434,0.0143 -1.30322,1.01226 -2.962811,3.11305 -7.744255,8.09971 -8.960181,9.34476 -0.3898,0.39913 -0.541175,0.60848 -0.506092,0.6999 0.03149,0.0821 0.08742,0.1067 0.150816,0.0664 0.05542,-0.0352 0.617389,-0.60055 1.248824,-1.25631 z m 0.04435,-2.18587 c 0.430752,-0.45903 1.196856,-1.26532 1.702454,-1.79175 0.505598,-0.52643 1.29494,-1.34911 1.754094,-1.82818 0.459154,-0.47907 1.589113,-1.65795 2.511022,-2.61973 1.967546,-2.05264 2.257925,-2.37333 2.257925,-2.49357 0,-0.21419 -0.251318,-0.0484 -0.801472,0.52864 -0.324245,0.3401 -1.271487,1.33269 -2.104982,2.20574 -0.833496,0.87306 -1.632239,1.71256 -1.774986,1.86557 -0.142746,0.15301 -0.676933,0.7078 -1.187081,1.23286 -1.146626,1.18014 -3.979711,4.14514 -4.497522,4.70693 -0.272433,0.29558 -0.367592,0.45559 -0.329686,0.55437 0.05607,0.14611 0.65351,-0.42488 2.470234,-2.36088 z m -1.361307,9.22804 c -0.35355,-0.21559 -3.54582,-3.27985 -3.681799,-3.53416 -0.343624,-0.64265 1.088009,-0.54569 2.11057,0.14295 0.831493,0.55996 1.634422,1.52399 1.902756,2.28453 0.164017,0.46487 0.14304,1.25873 -0.03323,1.25771 -0.02811,-1.6e-4 -0.162342,-0.0681 -0.298293,-0.15103 z m 30.372422,-0.85322 c -1.027922,-0.10129 -2.223956,-0.56529 -3.041371,-1.1799 -0.471852,-0.35478 -0.676378,-0.56998 -3.514211,-3.69753 -2.565279,-2.82717 -3.803422,-4.18824 -4.373759,-4.808 -0.284163,-0.30879 -0.838579,-0.91732 -1.232035,-1.35228 -0.393457,-0.43497 -0.850426,-0.9398 -1.015489,-1.12185 -0.298632,-0.32936 -0.299636,-0.33278 -0.203567,-0.69197 0.07116,-0.26606 0.07403,-0.43433 0.01092,-0.63998 -0.0808,-0.26326 -0.07379,-0.28316 0.124082,-0.3527 0.333854,-0.11732 1.842702,-1.28895 2.007077,-1.55851 0.179773,-0.29481 0.192489,-0.68755 0.03229,-0.99734 -0.06476,-0.12524 -0.489913,-0.59026 -0.944777,-1.03339 l -0.827025,-0.80568 0.529903,-0.53251 c 0.291446,-0.29289 1.244186,-1.28339 2.117198,-2.20112 0.873011,-0.91774 1.691738,-1.76939 1.81939,-1.89257 l 0.232096,-0.22395 0.681994,0.66781 c 0.375097,0.36729 1.485859,1.45144 2.46836,2.40922 2.5589,2.4945 5.261159,5.13923 7.234122,7.08009 0.940576,0.92527 2.001381,1.96256 2.357346,2.30509 0.355964,0.34253 0.790245,0.81951 0.965071,1.05996 1.154286,1.58754 1.463083,3.54439 0.859206,5.4448 -0.475898,1.49765 -1.620668,2.80525 -3.11963,3.56335 -0.778303,0.39363 -2.235367,0.65078 -3.167188,0.55896 z m 1.76251,-3.14302 c 0.558498,-0.20585 1.126428,-0.67771 1.432323,-1.19003 0.890418,-1.49129 0.329508,-3.4124 -1.217279,-4.16918 -1.420693,-0.69508 -3.24587,-0.0554 -3.926528,1.37614 -0.206287,0.43386 -0.317509,1.33115 -0.226129,1.82432 0.156578,0.84504 0.753414,1.63326 1.523527,2.01207 0.852161,0.41916 1.558426,0.46207 2.414086,0.14668 z M 57.446821,229.59905 c -0.14415,-0.0841 -2.554289,-2.36607 -4.510837,-4.27097 -0.980888,-0.955 -0.982251,-0.96684 -0.238459,-2.07194 0.529299,-0.78642 0.748677,-0.96725 0.999239,-0.82365 0.118225,0.0678 0.446998,0.37615 3.074425,2.88387 0.808771,0.77192 1.767314,1.68617 2.130093,2.03165 0.889579,0.84717 0.884203,0.90508 -0.15634,1.68383 -0.821917,0.61513 -1.047209,0.71357 -1.298121,0.56721 z m -0.332561,-4.85429 c -0.652912,-0.62676 -0.709647,-0.72867 -0.545296,-0.9795 0.123963,-0.18919 1.040235,-1.16656 2.90075,-3.09416 0.506351,-0.52461 2.815809,-2.93871 5.13213,-5.36467 2.316321,-2.42596 4.434456,-4.64362 4.706967,-4.92814 0.315778,-0.32969 0.49595,-0.58467 0.496788,-0.70304 7.15e-4,-0.10216 0.282711,-0.69235 0.626641,-1.31153 0.343929,-0.61917 0.849562,-1.54962 1.123627,-2.06765 0.459253,-0.86806 0.53327,-0.96405 0.944525,-1.22493 0.245422,-0.15568 0.732373,-0.46869 1.082111,-0.69556 0.349739,-0.22688 1.04723,-0.67309 1.54998,-0.99158 0.50275,-0.31849 1.208851,-0.77095 1.569114,-1.00548 0.360263,-0.23452 0.67313,-0.4264 0.695259,-0.4264 0.02213,0 0.381178,0.33086 0.797886,0.73524 l 0.757649,0.73525 -0.582818,0.99358 c -0.32055,0.54646 -0.882239,1.51222 -1.248198,2.14612 -0.365959,0.6339 -0.802211,1.38279 -0.969449,1.66419 -0.167238,0.2814 -0.304068,0.53661 -0.304068,0.56712 0,0.0305 -0.509705,0.35911 -1.132677,0.73021 -1.08287,0.64507 -1.856915,1.10956 -2.653702,1.59242 -0.20143,0.12207 -0.424481,0.21333 -0.495669,0.2028 -0.158458,-0.0234 -0.195222,0.0121 -2.354759,2.27778 -0.958407,1.0055 -2.157769,2.25741 -2.665249,2.78202 -0.709886,0.73384 -3.627294,3.78508 -4.449043,4.65314 -0.06558,0.0693 -0.783463,0.8212 -1.595304,1.67096 -0.811841,0.84976 -1.687945,1.76858 -1.946899,2.04181 -0.362502,0.38249 -0.522814,0.49679 -0.696801,0.49679 -0.169008,0 -0.356449,-0.12524 -0.743495,-0.49679 z m -6.066072,-0.35061 c -0.06558,-0.022 -0.303137,-0.24109 -0.527912,-0.48686 l -0.408684,-0.44687 -1.141296,0.27455 c -1.133099,0.27257 -1.154426,0.27453 -2.969476,0.2723 -1.805141,-0.002 -1.841147,-0.006 -2.857085,-0.26511 -2.184902,-0.55821 -3.836774,-1.43882 -5.449215,-2.90496 -1.95801,-1.78035 -3.267239,-4.12042 -3.828506,-6.84294 -0.258444,-1.25362 -0.254468,-3.43971 0.0085,-4.64993 0.167608,-0.77148 0.460643,-1.82784 0.526434,-1.89773 0.02506,-0.0266 1.587766,1.56638 3.334108,3.39876 1.49462,1.56826 2.094999,2.145 2.560678,2.45987 2.904953,1.96419 6.895938,0.66299 8.094531,-2.6391 0.493962,-1.36085 0.391703,-3.01971 -0.265567,-4.30807 -0.290822,-0.57005 -0.749783,-1.10444 -2.530034,-2.94582 -3.077264,-3.18293 -3.360572,-3.48603 -3.304808,-3.5356 0.03005,-0.0267 0.430216,-0.14069 0.889249,-0.25328 2.8233,-0.69249 5.796918,-0.34357 8.465271,0.9933 3.07612,1.54117 5.40742,4.3594 6.352553,7.67939 0.36301,1.27516 0.463327,2.18768 0.416704,3.79055 -0.04397,1.51174 -0.138126,2.10302 -0.528769,3.32061 -0.182394,0.5685 -0.20475,0.71556 -0.120824,0.79486 0.05664,0.0535 0.677823,0.66595 1.380411,1.36099 l 1.277434,1.26369 -0.206744,0.24654 c -0.113709,0.1356 -0.928354,0.99769 -1.810321,1.91575 -0.881967,0.91807 -1.838765,1.91776 -2.126218,2.22153 l -0.522641,0.55233 -0.8635,-0.81947 c -0.474926,-0.45071 -0.946309,-0.85127 -1.047519,-0.89014 -0.297998,-0.11444 -0.672319,-0.0811 -0.943226,0.0841 -0.295198,0.17999 -1.041013,1.19638 -1.356212,1.84823 -0.216509,0.44776 -0.263976,0.48675 -0.497274,0.4085 z"
         id="path1066" />
    </g>
  </g>
</svg>
